<svg xmlns="http://www.w3.org/2000/svg" width="24" height="24" viewBox="0 0 512 512" version="1.1"><path d="M 166.500 74.460 C 120.300 95.013, 81.291 112.505, 79.812 113.332 C 78.334 114.159, 76.170 116.707, 75.003 118.994 C 72.888 123.140, 72.882 123.382, 73.256 195.327 C 73.609 263.174, 73.759 268.292, 75.764 280.713 C 84.173 332.799, 103.976 373.435, 137.966 408.348 C 158.792 429.740, 179.515 444.701, 207.500 458.550 C 226.283 467.844, 248.912 475.974, 256 475.974 C 266.947 475.974, 306.856 459.181, 328.498 445.469 C 342.676 436.485, 355.591 426.372, 367.406 415 C 405.727 378.117, 427.309 336.010, 436.236 280.713 C 438.241 268.292, 438.391 263.174, 438.744 195.327 C 439.115 123.915, 439.097 123.110, 437.046 119.091 C 435.907 116.857, 433.968 114.384, 432.737 113.596 C 431.507 112.808, 392.417 95.252, 345.872 74.582 C 268.002 40.001, 260.814 37.004, 255.872 37.046 C 251.016 37.088, 242.436 40.680, 166.500 74.460 M 251.500 128.646 C 227.602 131.395, 210.228 145.648, 203.612 167.932 C 201.551 174.876, 201.510 189.699, 203.531 197.458 C 208.337 215.910, 223.800 231.148, 242.093 235.460 C 261.510 240.037, 281.089 234.823, 294.515 221.500 C 305.155 210.942, 310 198.650, 310 182.216 C 310 161.431, 298.790 142.983, 280.901 134.326 C 272.156 130.094, 259.750 127.697, 251.500 128.646 M 237.500 275.627 C 210.885 279.631, 193.143 286.636, 180.668 298.067 C 169.085 308.681, 164.243 319.431, 165.311 332.166 C 166.939 351.591, 182.948 367.425, 210 376.369 C 224.961 381.315, 237.600 383.189, 256 383.189 C 274.400 383.189, 287.039 381.315, 302 376.369 C 329.052 367.425, 345.061 351.591, 346.689 332.166 C 348.783 307.196, 325.978 286.252, 287.500 277.809 C 280.761 276.330, 273.726 275.751, 259.500 275.505 C 249.050 275.324, 239.150 275.379, 237.500 275.627" stroke="none" fill="currentColor" fill-rule="evenodd"/></svg>