<svg id="svg" version="1.1" xmlns="http://www.w3.org/2000/svg" xmlns:xlink="http://www.w3.org/1999/xlink" width="400" height="400" viewBox="0, 0, 400,400"><g id="svgg"><path id="path0" d="M109.637 117.420 C 99.722 127.873,99.025 126.236,121.809 146.031 C 130.146 153.275,137.292 159.499,137.689 159.862 C 138.281 160.405,137.855 160.930,135.295 162.815 C 125.069 170.343,112.990 184.638,106.908 196.410 L 105.053 200.000 106.892 203.558 C 129.906 248.087,185.638 269.218,235.776 252.424 C 240.281 250.915,241.354 250.719,242.018 251.285 C 242.459 251.661,251.636 259.664,262.413 269.069 L 282.006 286.170 284.482 286.170 C 288.323 286.170,296.809 276.967,296.809 272.801 C 296.809 269.981,303.522 276.045,205.944 190.723 L 118.004 113.830 115.523 113.830 C 113.151 113.830,112.893 113.988,109.637 117.420 M189.894 142.349 C 182.579 143.007,167.854 145.891,167.309 146.774 C 167.169 147.000,172.309 151.778,178.730 157.392 L 190.404 167.600 192.676 166.960 C 212.112 161.481,233.538 178.720,233.657 199.933 L 233.688 205.452 250.350 220.050 C 263.143 231.259,267.247 234.575,268.020 234.329 C 273.418 232.616,295.525 203.389,294.491 199.333 C 292.718 192.381,277.716 173.400,267.287 164.914 C 246.709 148.170,218.058 139.817,189.894 142.349 M193.777 208.975 C 206.269 219.908,216.489 229.034,216.489 229.255 C 216.489 229.779,212.272 231.572,208.245 232.759 C 184.445 239.776,159.942 214.535,167.519 190.807 L 168.671 187.199 169.868 188.147 C 170.526 188.669,181.286 198.041,193.777 208.975 " stroke="none" fill="#000000" fill-rule="evenodd"></path></g></svg>