<svg xmlns="http://www.w3.org/2000/svg" width="50" height="50" viewBox="0 0 512 512" version="1.1"><path d="M 309.500 65.599 C 281.537 68.183, 260.933 73.662, 238.500 84.476 C 211.992 97.256, 187.507 117.295, 170.048 140.500 C 159.184 154.940, 157.587 159.656, 160.358 169.124 C 163.487 179.816, 171.935 186.200, 182.953 186.200 C 192.098 186.200, 197.443 182.789, 205.662 171.708 C 226.813 143.192, 256.237 123.939, 291 115.867 C 302.270 113.250, 328.919 112.233, 340.867 113.963 C 406.172 123.424, 456.152 174.413, 463.920 239.500 C 470.278 292.770, 445.580 345.715, 400.500 375.451 C 376.317 391.404, 351.110 398.945, 321.849 398.983 C 276.145 399.041, 234.850 378.607, 207.180 342.240 C 199.465 332.100, 197.583 330.263, 192.500 327.902 C 184.654 324.258, 174.350 325.889, 167.769 331.817 C 160.034 338.784, 157.583 349.798, 161.712 359.033 C 164.221 364.646, 175.595 379.305, 184.618 388.556 C 209.372 413.936, 239.996 431.770, 273.995 440.604 C 290.256 444.828, 302.159 446.262, 321 446.263 C 332.700 446.264, 342.146 445.691, 349.500 444.534 C 391.033 437.996, 427.366 419.586, 456.519 390.306 C 530.753 315.748, 530.753 196.252, 456.519 121.694 C 427.491 92.540, 390.495 73.751, 350 67.599 C 340.215 66.112, 316.578 64.945, 309.500 65.599 M 83 165.083 C 79.679 166.588, 69.100 176.475, 42.631 202.811 C 22.903 222.440, 5.465 240.501, 3.881 242.946 C 1.274 246.969, 1 248.210, 1 256 C 1 263.790, 1.274 265.031, 3.881 269.054 C 5.465 271.499, 22.903 289.560, 42.631 309.189 C 81.479 347.842, 82.868 348.938, 93.054 348.978 C 104.290 349.022, 113.608 341.580, 116.066 330.598 C 117.058 326.164, 116.975 324.418, 115.532 319.421 C 113.923 313.846, 112.854 312.523, 97.217 296.767 L 80.611 280.035 217.583 279.767 L 354.554 279.500 359.518 276.945 C 369.624 271.744, 374.720 260.396, 371.655 249.921 C 369.653 243.081, 365.343 237.840, 359.251 234.840 L 354.500 232.500 217.556 232.233 L 80.611 231.965 97.217 215.233 C 112.854 199.477, 113.923 198.154, 115.532 192.579 C 116.975 187.582, 117.058 185.836, 116.066 181.402 C 112.780 166.723, 96.793 158.832, 83 165.083" stroke="none" fill="currentColor" fill-rule="evenodd"/></svg>