<svg xmlns="http://www.w3.org/2000/svg" width="24" height="24" viewBox="0 0 1024 1024" version="1.1"><path d="M 199.558 66.492 C 193.526 68.641, 190.755 71.104, 187.745 76.990 L 184.990 82.379 185.245 476.439 L 185.500 870.500 187.797 874.802 C 190.438 879.749, 197.208 884.521, 202.965 885.494 C 211.434 886.925, 220.092 882.278, 224.250 874.070 L 227 868.641 227 487.821 L 227 107 400.480 107 L 573.961 107 574.230 201.750 L 574.500 296.500 576.741 300.692 C 579.234 305.356, 583.759 309.141, 588.899 310.862 C 591.344 311.680, 618.521 312, 685.649 312 L 779 312 779 352.500 L 779 393 552.750 393.006 C 397.958 393.009, 325.307 393.342, 322.723 394.060 C 317.807 395.425, 312.155 400.450, 309.865 405.491 C 308.123 409.327, 308.043 418.411, 308.022 615.601 C 308.006 767.068, 308.302 822.603, 309.138 825.101 C 310.859 830.241, 314.644 834.766, 319.308 837.259 L 323.500 839.500 551.250 839.761 L 779 840.021 779 883.011 L 779 926 489.657 926 L 200.315 926 195.907 928.327 C 193.483 929.606, 190.150 932.570, 188.500 934.913 C 185.827 938.708, 185.500 939.971, 185.500 946.500 C 185.500 953.029, 185.827 954.292, 188.500 958.087 C 190.150 960.430, 193.483 963.394, 195.907 964.673 L 200.315 967 502.697 967 C 800.047 967, 805.143 966.968, 808.885 965.059 C 813.855 962.523, 818.627 957.007, 819.940 952.277 C 820.612 949.857, 820.991 929.041, 820.994 894.318 L 821 840.135 843.750 839.818 C 864.793 839.524, 866.800 839.338, 870.500 837.347 C 875.521 834.645, 878.472 831.508, 880.452 826.768 C 881.832 823.466, 882 800.632, 882 615.992 C 882 414.195, 881.951 408.826, 880.092 405.210 C 877.637 400.437, 873.470 396.511, 868.782 394.553 C 865.803 393.308, 860.688 393, 843.032 393 L 821 393 820.994 335.750 C 820.991 298.258, 820.620 277.120, 819.919 274.500 C 818.991 271.032, 805.335 256.993, 717.174 168.874 C 620.695 72.440, 615.260 67.190, 610.807 66.124 C 607.411 65.311, 550.489 65.012, 404.807 65.044 C 234.581 65.081, 202.891 65.305, 199.558 66.492 M 616 198.500 L 616 270 687.747 270 L 759.495 270 688 198.500 C 648.678 159.175, 616.392 127, 616.253 127 C 616.114 127, 616 159.175, 616 198.500 M 350 480.500 L 350 526 416 526 L 482 526 482 480.500 L 482 435 416 435 L 350 435 350 480.500 M 524 480.500 L 524 526 595 526 L 666 526 666 480.500 L 666 435 595 435 L 524 435 524 480.500 M 708 480.500 L 708 526 774 526 L 840 526 840 480.500 L 840 435 774 435 L 708 435 708 480.500 M 350 613.500 L 350 659 416 659 L 482 659 482 613.500 L 482 568 416 568 L 350 568 350 613.500 M 524 613.500 L 524 659 595 659 L 666 659 666 613.500 L 666 568 595 568 L 524 568 524 613.500 M 708 613.500 L 708 659 774 659 L 840 659 840 613.500 L 840 568 774 568 L 708 568 708 613.500 M 350 749.500 L 350 798 416 798 L 482 798 482 749.500 L 482 701 416 701 L 350 701 350 749.500 M 524 749.500 L 524 798 595 798 L 666 798 666 749.500 L 666 701 595 701 L 524 701 524 749.500 M 708 749.500 L 708 798 774 798 L 840 798 840 749.500 L 840 701 774 701 L 708 701 708 749.500" stroke="none" fill="currentColor" fill-rule="evenodd"/></svg>